<?xml version="1.0" encoding="UTF-8"?>
<svg xmlns="http://www.w3.org/2000/svg"
     xmlns:xlink="http://www.w3.org/1999/xlink"
     xmlns:gadfly="http://www.gadflyjl.org/ns"
     version="1.2"
     width="127mm" height="101.6mm" viewBox="0 0 127 101.6"
     stroke="none"
     fill="#000000"
     stroke-width="0.3"
     font-size="3.88"
>
<defs>
  <marker id="arrow" markerWidth="15" markerHeight="7" refX="5" refY="3.5" orient="auto" markerUnits="strokeWidth">
    <path d="M0,0 L15,3.5 L0,7 z" stroke="context-stroke" fill="context-stroke"/>
  </marker>
</defs>
<g class="plotroot xscalable yscalable" id="img-74f87b9f-1">
  <g font-size="3.88" font-family="'PT Sans','Helvetica Neue','Helvetica',sans-serif" fill="#564A55" stroke="#000000" stroke-opacity="0.000" id="img-74f87b9f-2">
    <g transform="translate(70.82,89.99)">
      <g class="primitive">
        <text text-anchor="middle" dy="0.6em">Year</text>
      </g>
    </g>
  </g>
  <g class="guide xlabels" font-size="2.82" font-family="'PT Sans Caption','Helvetica Neue','Helvetica',sans-serif" fill="#6C606B" id="img-74f87b9f-3">
    <g transform="translate(21.63,83.32)">
      <g class="primitive">
        <text text-anchor="middle" dy="0.6em">1970</text>
      </g>
    </g>
    <g transform="translate(54.42,83.32)">
      <g class="primitive">
        <text text-anchor="middle" dy="0.6em">1980</text>
      </g>
    </g>
    <g transform="translate(87.21,83.32)">
      <g class="primitive">
        <text text-anchor="middle" dy="0.6em">1990</text>
      </g>
    </g>
    <g transform="translate(120,83.32)">
      <g class="primitive">
        <text text-anchor="middle" dy="0.6em">2000</text>
      </g>
    </g>
  </g>
  <g clip-path="url(#img-74f87b9f-4)">
    <g id="img-74f87b9f-5">
      <g pointer-events="visible" stroke-width="0.3" fill="#000000" fill-opacity="0.000" stroke="#000000" stroke-opacity="0.000" class="guide background" id="img-74f87b9f-6">
        <g transform="translate(70.82,43.66)" id="img-74f87b9f-7">
          <path d="M-51.18,-38.66 L51.18,-38.66 51.18,38.66 -51.18,38.66  z" class="primitive"/>
        </g>
      </g>
      <g class="guide ygridlines xfixed" stroke-dasharray="0.5,0.5" stroke-width="0.2" stroke="#D0D0E0" id="img-74f87b9f-8">
        <g transform="translate(70.82,80.32)" id="img-74f87b9f-9">
          <path fill="none" d="M-51.18,0 L51.18,0 " class="primitive"/>
        </g>
        <g transform="translate(70.82,55.88)" id="img-74f87b9f-10">
          <path fill="none" d="M-51.18,0 L51.18,0 " class="primitive"/>
        </g>
        <g transform="translate(70.82,31.44)" id="img-74f87b9f-11">
          <path fill="none" d="M-51.18,0 L51.18,0 " class="primitive"/>
        </g>
        <g transform="translate(70.82,7)" id="img-74f87b9f-12">
          <path fill="none" d="M-51.18,0 L51.18,0 " class="primitive"/>
        </g>
      </g>
      <g class="guide xgridlines yfixed" stroke-dasharray="0.5,0.5" stroke-width="0.2" stroke="#D0D0E0" id="img-74f87b9f-13">
        <g transform="translate(21.63,43.66)" id="img-74f87b9f-14">
          <path fill="none" d="M0,-38.66 L0,38.66 " class="primitive"/>
        </g>
        <g transform="translate(54.42,43.66)" id="img-74f87b9f-15">
          <path fill="none" d="M0,-38.66 L0,38.66 " class="primitive"/>
        </g>
        <g transform="translate(87.21,43.66)" id="img-74f87b9f-16">
          <path fill="none" d="M0,-38.66 L0,38.66 " class="primitive"/>
        </g>
        <g transform="translate(120,43.66)" id="img-74f87b9f-17">
          <path fill="none" d="M0,-38.66 L0,38.66 " class="primitive"/>
        </g>
      </g>
      <g class="plotpanel" id="img-74f87b9f-18">
        <metadata>
          <boundingbox value="19.63166666666666mm 5.0mm 102.36833333333334mm 77.315mm"/>
          <unitbox value="1969.3900476101726 154.09193207392758 31.219904779654698 -158.18386414785516"/>
        </metadata>
        <g stroke-width="0.3" fill="#000000" fill-opacity="0.000" class="geometry" id="img-74f87b9f-19">
          <g class="color_LCHab{Float32}(70.0f0,60.0f0,240.0f0)" stroke-dasharray="4,1" stroke="#00BFFF" id="img-74f87b9f-20">
            <g transform="translate(70.82,30.59)" id="img-74f87b9f-21">
              <path fill="none" d="M-49.18,-7.34 L-45.91,-8.27 -42.63,-10.94 -39.35,-11.47 -36.07,-12.3 -32.79,-12.4 -29.51,-12.73 -26.23,-11.68 -22.95,-11.34 -19.67,-10.24 -16.39,-9.02 -13.12,-8.86 -9.84,-7.24 -6.56,-4.49 -3.28,-0.56 0,-0.56 3.28,1.13 6.56,1.11 9.84,5.06 13.12,5.81 16.39,7 19.67,9.7 22.95,9.93 26.23,10.13 29.51,10.34 32.79,11.42 36.07,11.9 39.35,11.76 42.63,13.42 45.91,13.83 49.18,16.89 " class="primitive"/>
            </g>
          </g>
        </g>
        <g stroke-width="0.3" fill="#000000" fill-opacity="0.000" class="geometry" id="img-74f87b9f-22">
          <g class="color_RGB{N0f8}(1.0,0.0,0.0)" stroke-dasharray="none" stroke="#FF0000" id="img-74f87b9f-23">
            <g transform="translate(70.82,21.89)" id="img-74f87b9f-24">
              <path fill="none" d="M-49.18,-0.27 L-45.91,-2.12 -42.63,-4.71 -39.35,-5.87 -36.07,-7.4 -32.79,-8.5 -29.51,-10.62 -26.23,-10.54 -22.95,-10.24 -19.67,-9.07 -16.39,-9.07 -13.12,-9.02 -9.84,-8.19 -6.56,-5.73 -3.28,-2.62 0,-1.75 3.28,-0.52 6.56,0.95 9.84,2.79 13.12,4.82 16.39,6.78 19.67,7.42 22.95,7.89 26.23,8.23 29.51,8.51 32.79,8 36.07,8.97 39.35,8.67 42.63,9.08 45.91,10.72 49.18,13.39 " class="primitive"/>
            </g>
          </g>
        </g>
        <g class="yfixed" id="img-74f87b9f-25">
          <g stroke-dasharray="0.5,0.5" stroke-width="0.3" stroke="#000000" id="img-74f87b9f-26">
            <g transform="translate(80.65,43.66)" id="img-74f87b9f-27">
              <path fill="none" d="M0,-38.66 L0,38.66 " class="primitive"/>
            </g>
          </g>
        </g>
        <g stroke-width="0.3" fill="#000000" fill-opacity="0.000" class="geometry" id="img-74f87b9f-28">
          <g class="color_RGB{N0f8}(0.0,0.749,1.0)" stroke-dasharray="none" stroke="#00BFFF" id="img-74f87b9f-29">
            <g transform="translate(70.82,34.08)" id="img-74f87b9f-30">
              <path fill="none" d="M-49.18,-13.89 L-45.91,-12.91 -42.63,-14.13 -39.35,-14.57 -36.07,-15.7 -32.79,-15.89 -29.51,-16.33 -26.23,-15.55 -22.95,-15.4 -19.67,-13.35 -16.39,-12.52 -13.12,-11.74 -9.84,-10.17 -6.56,-7.92 -3.28,-4.99 0,-4.01 3.28,-2.5 6.56,-1.42 9.84,2.19 13.12,5.96 16.39,8.2 19.67,12.65 22.95,13.24 26.23,15.24 29.51,17.59 32.79,18.66 36.07,19.59 39.35,19.94 42.63,20.67 45.91,23.16 49.18,25.9 " class="primitive"/>
            </g>
          </g>
        </g>
      </g>
      <g class="geometry" id="img-74f87b9f-31">
        <g transform="translate(24.91,33.88)" id="img-74f87b9f-32">
          <g class="primitive">
            <text dy="-1.2em">Solid: California (actual) <tspan x="0" dy="1.1000em"> Dash: California (synthetic)</tspan></text>
          </g>
        </g>
      </g>
      <g class="geometry" id="img-74f87b9f-33">
        <g transform="translate(97.05,26.55)" id="img-74f87b9f-34">
          <g class="primitive">
            <text dy="-0em">Rest of U.S.</text>
          </g>
        </g>
      </g>
      <g class="geometry" id="img-74f87b9f-35">
        <g transform="translate(82.29,68.1)" id="img-74f87b9f-36">
          <g class="primitive">
            <text dy="-0em">← Proposition 99</text>
          </g>
        </g>
      </g>
    </g>
  </g>
  <g class="guide ylabels" font-size="2.82" font-family="'PT Sans Caption','Helvetica Neue','Helvetica',sans-serif" fill="#6C606B" id="img-74f87b9f-37">
    <g transform="translate(18.63,80.32)" id="img-74f87b9f-38">
      <g class="primitive">
        <text text-anchor="end" dy="0.35em">0</text>
      </g>
    </g>
    <g transform="translate(18.63,55.88)" id="img-74f87b9f-39">
      <g class="primitive">
        <text text-anchor="end" dy="0.35em">50</text>
      </g>
    </g>
    <g transform="translate(18.63,31.44)" id="img-74f87b9f-40">
      <g class="primitive">
        <text text-anchor="end" dy="0.35em">100</text>
      </g>
    </g>
    <g transform="translate(18.63,7)" id="img-74f87b9f-41">
      <g class="primitive">
        <text text-anchor="end" dy="0.35em">150</text>
      </g>
    </g>
  </g>
  <g font-size="3.88" font-family="'PT Sans','Helvetica Neue','Helvetica',sans-serif" fill="#564A55" stroke="#000000" stroke-opacity="0.000" id="img-74f87b9f-42">
    <g transform="translate(8.81,41.66)" id="img-74f87b9f-43">
      <g class="primitive">
        <text text-anchor="middle" dy="0.35em" transform="rotate(-90,0, 2)">Somking per capita (in packs)</text>
      </g>
    </g>
  </g>
</g>
<defs>
  <clipPath id="img-74f87b9f-4">
    <path d="M19.63,5 L122,5 122,82.32 19.63,82.32 " />
  </clipPath>
</defs>
</svg>
